<svg id="Default" xmlns="http://www.w3.org/2000/svg" xmlns:xlink="http://www.w3.org/1999/xlink" viewBox="0 0 4000 2400"><defs><style>.cls-1{fill:none;}.cls-2{clip-path:url(#clip-path);}.cls-3{fill:#fcc467;}.cls-4{fill:#f39006;}.cls-5{fill:#5b1213;}</style><clipPath id="clip-path"><rect class="cls-1" width="4000" height="2400"/></clipPath></defs><g class="cls-2"><g class="cls-2"><path class="cls-3" d="M1677.67,1443.53a434.07,434.07,0,0,1-51.78,57.46c-3.58-5-6.94-9.89-10.52-14.73-7.58-10.74-15.15-21.26-22.73-31.79-15.16-21.68-30.94-42.09-50.72-59.77a167.65,167.65,0,0,0-35-24.42c-30.94-15.58-66.09-22.1-100.4-19.58a6.72,6.72,0,0,1-2.1,0c30.94-12.62,65.25-17,98.29-11.78a154.1,154.1,0,0,1,39.36,12c23.58,10.31,44,24.41,64.62,39.78,10.1,7.58,20.2,14.94,30.1,22.52,13.68,10.1,27.15,20.2,40.83,30.31"/><path class="cls-4" d="M1625.89,1501a421.61,421.61,0,0,1-231.53,108.4,413.85,413.85,0,0,1-53.67,3.57c-204.38,0-375.29-146.49-413-339.92-4-20.21,11.78-38.94,32.41-38.94h189.22a33,33,0,0,1,30.52,21,171.92,171.92,0,0,0,224.38,95.56h.21a7,7,0,0,0,2.1,0c34.31-2.52,69.46,4,100.4,19.58a167.32,167.32,0,0,1,34.94,24.42c19.79,17.68,35.57,38.09,50.73,59.77,7.58,10.53,15.15,21,22.73,31.78,3.58,4.85,6.94,9.69,10.52,14.74"/><path class="cls-3" d="M1674.13,956.47A434.14,434.14,0,0,0,1622.34,899c-3.57,5-6.94,9.89-10.52,14.73-7.58,10.74-15.15,21.26-22.73,31.79-15.15,21.68-30.94,42.09-50.72,59.77a167.38,167.38,0,0,1-34.95,24.42A192.87,192.87,0,0,1,1403,1049.3a6.79,6.79,0,0,0-2.11,0c30.94,12.62,65.25,17,98.3,11.78a153.91,153.91,0,0,0,39.35-12c23.58-10.31,44-24.41,64.63-39.78,10.1-7.58,20.2-14.94,30.09-22.52,13.69-10.1,27.15-20.2,40.84-30.31"/><path class="cls-4" d="M1622.34,899a421.58,421.58,0,0,0-231.52-108.4,413.85,413.85,0,0,0-53.67-3.57c-204.38,0-375.29,146.49-413,339.92-4,20.21,11.79,38.94,32.42,38.94h189.22a33,33,0,0,0,30.52-21,171.92,171.92,0,0,1,224.38-95.56h.21a7,7,0,0,1,2.1,0,192.92,192.92,0,0,0,100.4-19.58,167.58,167.58,0,0,0,34.94-24.42c19.78-17.68,35.57-38.09,50.72-59.77,7.58-10.53,15.16-21,22.73-31.78,3.58-4.85,7-9.69,10.52-14.74"/><path class="cls-5" d="M2045.23,1159.67a104.27,104.27,0,0,1-29.64-13.31,99.71,99.71,0,0,1-23.65-21.55,96.06,96.06,0,0,1-15.76-30.09,120.65,120.65,0,0,1-5.71-37.82,128.33,128.33,0,0,1,4.54-34.42,102.83,102.83,0,0,1,13.67-29.87,101,101,0,0,1,22-23.49A95.91,95.91,0,0,1,2041,953.64a124.89,124.89,0,0,1,37.82-5.5,108.68,108.68,0,0,1,29.51,4.12,110.66,110.66,0,0,1,29.28,13.46,109.54,109.54,0,0,1,26,23.06l-36.31,31a75.21,75.21,0,0,0-21.33-17.28,55,55,0,0,0-27.11-7,59.14,59.14,0,0,0-14.9,1.89,54.47,54.47,0,0,0-13.45,5.43,51.42,51.42,0,0,0-11.43,8.88,55.84,55.84,0,0,0-8.89,12.08,60.87,60.87,0,0,0-5.72,15.19,77.74,77.74,0,0,0-2,18,66.19,66.19,0,0,0,6.86,30.24,53.16,53.16,0,0,0,19.9,21.62,55.29,55.29,0,0,0,29.65,8,58.56,58.56,0,0,0,26.82-6.57,64.92,64.92,0,0,0,21.62-17.43l36.31,31.1a109,109,0,0,1-36.31,29.14q-21.82,11.07-48.44,11.06a126.25,126.25,0,0,1-33.57-4.41"/><path class="cls-5" d="M2322.71,1016.55v144.92h-46.42v-16.34h-.72q-15.93,19.09-40.94,19.1-52.2,0-52.2-61.76v-85.92h46.28V1091q0,17.36,5.13,24.66t17,7.3q11,0,18.23-8.89t7.23-25.82v-71.74Z"/><rect class="cls-5" x="2353.62" y="943.38" width="46.14" height="218.1"/><path class="cls-5" d="M2447.12,1151.93q-11.58-12.3-11.57-36V1054.3h-16.34v-37.75h16.34V970.27l46.29-4.92v51.2H2517v37.75h-35.13v52.94c0,5.2.79,9.26,2.38,12.14s4.46,4.35,8.6,4.35a31.23,31.23,0,0,0,14.32-3.62l11.44,34.14a83.55,83.55,0,0,1-17.72,7.44q-8.9,2.54-22.79,2.54-19.4,0-31-12.3"/><path class="cls-5" d="M2678.11,1016.55v144.92H2631.7v-16.34H2631q-15.91,19.09-40.93,19.1-52.22,0-52.21-61.76v-85.92h46.28V1091q0,17.36,5.14,24.66t17,7.3c7.33,0,13.39-3,18.23-8.89s7.23-14.54,7.23-25.82v-71.74Z"/><path class="cls-5" d="M2797.85,1014v49.9c-2.81-.2-6.42-.29-10.86-.29q-10.69,0-18.29,4.27a27.17,27.17,0,0,0-11.29,11.64,37.47,37.47,0,0,0-3.68,16.92v65.09h-46.29V1016.55h46.29v19.39h.57a59.59,59.59,0,0,1,12.23-12.15,52,52,0,0,1,14.24-7.44,47.84,47.84,0,0,1,15.48-2.54,5.82,5.82,0,0,1,1.6.14"/><path class="cls-5" d="M2950.76,1101.46h-98.65a28.63,28.63,0,0,0,11.93,18.43,38.22,38.22,0,0,0,22.35,6.59q20.1,0,35.14-17.5l24.6,27.62q-9.84,12.45-26.47,20t-38.19,7.6a80.59,80.59,0,0,1-29.86-5.5,70.79,70.79,0,0,1-23.94-15.26,70,70,0,0,1-15.76-23.87,79.69,79.69,0,0,1-5.79-30.59,81.22,81.22,0,0,1,5.57-30.22,70.57,70.57,0,0,1,15.26-23.87,69.49,69.49,0,0,1,23.36-15.47,76.33,76.33,0,0,1,29.42-5.64q20.83,0,37.32,9.39a65.87,65.87,0,0,1,25.67,26.34q9.18,16.92,9.19,38.17a107.43,107.43,0,0,1-1.15,13.75M2862,1056.84q-7.53,6-9.7,17l54.24-.29a34.45,34.45,0,0,0-5.06-12.14,23.31,23.31,0,0,0-9-7.82,27.18,27.18,0,0,0-12.3-2.74,28.28,28.28,0,0,0-18.22,6"/><path class="cls-5" d="M2046.59,1446.41a106.35,106.35,0,0,1-30.19-13.55,101.22,101.22,0,0,1-24.07-21.94,97.59,97.59,0,0,1-16-30.63,123.1,123.1,0,0,1-5.81-38.5,130,130,0,0,1,4.63-35,104.32,104.32,0,0,1,13.91-30.41,103,103,0,0,1,22.39-23.92,97.62,97.62,0,0,1,30.85-15.75,127,127,0,0,1,38.5-5.61,111,111,0,0,1,30.05,4.2,115.88,115.88,0,0,1,56.25,37.18l-37,31.52a76.42,76.42,0,0,0-21.73-17.59,55.9,55.9,0,0,0-27.6-7.15,59.77,59.77,0,0,0-15.16,1.92,55.3,55.3,0,0,0-13.69,5.52,52.22,52.22,0,0,0-11.64,9,56.17,56.17,0,0,0-9,12.29,62.26,62.26,0,0,0-5.83,15.46,79,79,0,0,0-2.05,18.34,67.31,67.31,0,0,0,7,30.78,54,54,0,0,0,20.25,22,56.28,56.28,0,0,0,30.18,8.17,59.57,59.57,0,0,0,27.31-6.69,66.39,66.39,0,0,0,22-17.75l37,31.66a110.86,110.86,0,0,1-37,29.67q-22.23,11.27-49.33,11.26a128.12,128.12,0,0,1-34.16-4.49"/><path class="cls-5" d="M2335.41,1300.7v147.55h-44.75v-15.91h-.6q-14.28,18.72-40.93,18.71a69.85,69.85,0,0,1-28-5.6,64.25,64.25,0,0,1-22.08-15.46,70,70,0,0,1-14.29-24.15,96.33,96.33,0,0,1,0-62.21,73.14,73.14,0,0,1,14.13-24.37,64.37,64.37,0,0,1,21.43-15.69,63.32,63.32,0,0,1,26.57-5.66q24.89,0,40.66,18.4h.58V1300.7Zm-54.33,99.18q9-9.64,9-25.11a39.46,39.46,0,0,0-4-18,30.73,30.73,0,0,0-11.18-12.5,29.15,29.15,0,0,0-15.83-4.51,29.56,29.56,0,0,0-22.68,9.73q-9,9.71-9,25.32t8.83,25.11q8.84,9.63,22.68,9.64a29.19,29.19,0,0,0,22.23-9.64"/><path class="cls-5" d="M2481.66,1303.57a64.13,64.13,0,0,1,21.42,15.69,73,73,0,0,1,14.14,24.37,91.21,91.21,0,0,1,5.15,31q0,22.51-8.91,40a65.12,65.12,0,0,1-24.73,27q-15.83,9.51-35.85,9.5-24.9,0-39.77-17.23h-.73v74.07h-47.12V1300.7h47.27v15.91h.58q16-18.7,42-18.7a63.35,63.35,0,0,1,26.59,5.66m-15.84,96.31q8.85-9.64,8.84-25.11a41.07,41.07,0,0,0-2.42-14.36,33.33,33.33,0,0,0-6.64-11.11,28.91,28.91,0,0,0-10.08-7.07,31.67,31.67,0,0,0-12.52-2.51q-14.13,0-23.26,9.87t-9.14,25.18q0,15.62,9.2,25.18t23.36,9.57q13.85,0,22.66-9.64"/><path class="cls-5" d="M2562.53,1438.54q-11.79-12.54-11.78-36.67v-62.73h-16.64V1300.7h16.64v-47.12l47.12-5v52.12h35.77v38.44h-35.77V1393q0,8,2.43,12.37t8.75,4.42a31.84,31.84,0,0,0,14.58-3.68l11.65,34.75a85,85,0,0,1-18,7.58q-9.06,2.58-23.2,2.59-19.74,0-31.51-12.52"/><path class="cls-5" d="M2797.7,1300.7v147.55h-47.26v-16.64h-.74q-16.2,19.44-41.67,19.45-53.15,0-53.15-62.88V1300.7H2702v75.84q0,17.67,5.23,25.11c3.49,5,9.24,7.43,17.3,7.43q11.19,0,18.56-9t7.36-26.29v-73Z"/><path class="cls-5" d="M2919.59,1298.05v50.8q-4.29-.28-11.05-.29-10.89,0-18.63,4.35a27.71,27.71,0,0,0-11.48,11.85,38.08,38.08,0,0,0-3.75,17.23v66.26h-47.12V1300.7h47.12v19.74h.58a60.42,60.42,0,0,1,12.45-12.36,53,53,0,0,1,14.5-7.59,49,49,0,0,1,15.75-2.58,6.37,6.37,0,0,1,1.63.14"/><path class="cls-5" d="M3075.27,1387.15H2974.84a29.16,29.16,0,0,0,12.14,18.76q9.66,6.72,22.76,6.71,20.46,0,35.78-17.82l25,28.12q-10,12.67-26.95,20.39t-38.88,7.74a82.28,82.28,0,0,1-30.41-5.6,72,72,0,0,1-24.36-15.53,71.08,71.08,0,0,1-16.05-24.3,81.16,81.16,0,0,1-5.89-31.15,82.62,82.62,0,0,1,5.67-30.76,71.83,71.83,0,0,1,15.53-24.3,70.53,70.53,0,0,1,23.78-15.75,77.55,77.55,0,0,1,30-5.75q21.21,0,38,9.56a67.08,67.08,0,0,1,26.14,26.82q9.35,17.22,9.35,38.86a110.09,110.09,0,0,1-1.17,14m-90.42-45.44q-7.65,6.12-9.87,17.3l55.22-.29a35.34,35.34,0,0,0-5.14-12.36,23.92,23.92,0,0,0-9.13-8,27.72,27.72,0,0,0-12.52-2.79q-10.9,0-18.56,6.1"/></g></g></svg>